name rise35.5848peak51.9257fall54.8793.mot
datacolumns 19
datarows 11
range 1.12332300000000 1.13998700000000
endheader
time	ground_force1_vx	ground_force1_vy	ground_force1_vz	ground_force1_px	ground_force1_py	ground_force1_pz	ground_force2_vx	ground_force2_vy	ground_force2_vz	ground_force2_px	ground_force2_py	ground_force2_pz	ground_torque1_x	ground_torque1_y	ground_torque1_z	ground_torque2_x	ground_torque2_y	ground_torque2_z	
1.12332300000000	-38.29768500000000	804.19762000000003	49.17364900000000	0.11080000000000	0.00000000000000	0.11182300000000	-7.17819000000000	27.50304600000000	5.00724900000000	0.30920000000000	0.00000000000000	-0.06432900000000	0.00000000000000	19.84188800000000	0.00000000000000	0.00000000000000	2.32912100000000	0.00000000000000	
1.12499100000000	-38.72628100000000	801.67385800000000	48.95739300000000	0.11001500000000	0.00000000000000	0.11173800000000	-8.45332600000000	33.65347800000000	5.96522400000000	0.31498600000000	0.00000000000000	-0.06481900000000	0.00000000000000	19.72972300000000	0.00000000000000	0.00000000000000	2.82353000000000	0.00000000000000	
1.12665700000000	-39.16733500000000	799.05876000000001	48.72257800000000	0.10924300000000	0.00000000000000	0.11165000000000	-9.67101900000000	40.00297800000000	6.90480300000000	0.32033100000000	0.00000000000000	-0.06526300000000	0.00000000000000	19.61848000000000	0.00000000000000	0.00000000000000	3.32219100000000	0.00000000000000	
1.12832000000000	-39.62129000000000	796.35299699999996	48.46914700000000	0.10848500000000	0.00000000000000	0.11155700000000	-10.79105900000000	46.42484100000000	7.79890400000000	0.32528600000000	0.00000000000000	-0.06566900000000	0.00000000000000	19.50837300000000	0.00000000000000	0.00000000000000	3.81135400000000	0.00000000000000	
1.12999100000000	-40.08856100000000	793.55716099999995	48.19707800000000	0.10774200000000	0.00000000000000	0.11146000000000	-11.77983000000000	52.80622400000000	8.62434700000000	0.32989100000000	0.00000000000000	-0.06604300000000	0.00000000000000	19.39961300000000	0.00000000000000	0.00000000000000	4.27864200000000	0.00000000000000	
1.13165600000000	-40.56952700000000	790.67175899999995	47.90638900000000	0.10701300000000	0.00000000000000	0.11136000000000	-12.61214700000000	59.05530800000000	9.36314800000000	0.33418100000000	0.00000000000000	-0.06639100000000	0.00000000000000	19.29239600000000	0.00000000000000	0.00000000000000	4.71380500000000	0.00000000000000	
1.13332700000000	-41.06452900000000	787.69720500000005	47.59713400000000	0.10629700000000	0.00000000000000	0.11125500000000	-13.27215400000000	65.10571200000000	10.00321200000000	0.33818500000000	0.00000000000000	-0.06671600000000	0.00000000000000	19.18691600000000	0.00000000000000	0.00000000000000	5.10921800000000	0.00000000000000	
1.13499000000000	-41.57386600000000	784.63381300000003	47.26940500000000	0.10559500000000	0.00000000000000	0.11114600000000	-13.75332500000000	70.91814500000000	10.53844000000000	0.34192600000000	0.00000000000000	-0.06702300000000	0.00000000000000	19.08335000000000	0.00000000000000	0.00000000000000	5.46006800000000	0.00000000000000	
1.13665900000000	-42.09779300000000	781.48179100000004	46.92333300000000	0.10490600000000	0.00000000000000	0.11103300000000	-14.05770600000000	76.47955300000000	10.96832200000000	0.34542500000000	0.00000000000000	-0.06731400000000	0.00000000000000	18.98186800000000	0.00000000000000	0.00000000000000	5.76429900000000	0.00000000000000	
1.13832100000000	-42.63651300000000	778.24123699999996	46.55908200000000	0.10423000000000	0.00000000000000	0.11091600000000	-14.19457700000000	81.80026100000001	11.29715000000000	0.34870000000000	0.00000000000000	-0.06759100000000	0.00000000000000	18.88262900000000	0.00000000000000	0.00000000000000	6.02232200000000	0.00000000000000	
1.13998700000000	-43.19017400000000	774.91213000000005	46.17685700000000	0.10356600000000	0.00000000000000	0.11079500000000	-14.17874900000000	86.90967800000000	11.53295700000000	0.35176600000000	0.00000000000000	-0.06785800000000	0.00000000000000	18.78577700000000	0.00000000000000	0.00000000000000	6.23657700000000	0.00000000000000	
